<svg xmlns="http://www.w3.org/2000/svg" width="530" height="442" fill="none" viewBox="0 0 530 442"><g><path stroke="#414141" stroke-width="11.576" d="M6.94531 437.565L37.067 398.207M37.067 398.207V131.964M37.067 398.207H693.838M693.838 398.207V131.964M693.838 398.207L729.275 436.986"/><path stroke="#646464" stroke-width="11.576" d="M5.78784 441.038V131.964H730.432V441.038"/><path fill="#C4C4C4" d="M30.6863 0L0 20.8364H736.22L699.767 0H30.6863Z"/><rect width="724.645" height="93.764" x="5.788" y="26.624" stroke="#D5D5D5" stroke-width="11.576"/><path fill="#BCBCBC" d="M28.3606 46.8821L11.5757 32.4124H247.722L231.516 46.8821H28.3606Z"/><path fill="#BCBCBC" d="M231.93 100.709L248.88 114.6L10.4183 114.6L26.7833 100.709L231.93 100.709Z"/><path fill="#E5E5E5" d="M11.5757 32.4124L27.7818 46.3033V100.131L11.5757 114.6V32.4124Z"/><path fill="#E5E5E5" d="M247.722 114.6L231.516 100.709L231.516 46.8819L247.722 32.4122L247.722 114.6Z"/><rect width="219.94" height="68.297" x="19.679" y="39.358" fill="#F5F5F5"/><rect width="16.206" height="16.206" x="121.546" y="55.564" fill="#DEDEDE" rx="3.473"/><circle cx="129.649" cy="76.4" r="14.47" stroke="#8B8B8B" stroke-width="3.473"/><line x1="129.649" x2="129.649" y1="65.982" y2="57.879" stroke="#D2D2D2" stroke-width="4.63"/><path fill="#BCBCBC" d="M266.822 46.8821L250.037 32.4124H486.183L469.977 46.8821H266.822Z"/><path fill="#BCBCBC" d="M470.391 100.709L487.341 114.6L248.879 114.6L265.244 100.709L470.391 100.709Z"/><path fill="#E5E5E5" d="M250.037 32.4124L266.243 46.3033V100.131L250.037 114.6V32.4124Z"/><path fill="#E5E5E5" d="M486.183 114.6L469.977 100.709L469.977 46.8819L486.183 32.4122L486.183 114.6Z"/><rect width="219.94" height="68.297" x="258.14" y="39.358" fill="#F5F5F5"/><rect width="16.206" height="16.206" x="360.007" y="55.564" fill="#DEDEDE" rx="3.473"/><circle cx="368.11" cy="76.4" r="14.47" stroke="#8B8B8B" stroke-width="3.473"/><line x1="368.11" x2="368.11" y1="65.982" y2="57.879" stroke="#D2D2D2" stroke-width="4.63"/><path fill="#BCBCBC" d="M505.283 46.8821L488.499 32.4124H724.645L708.439 46.8821H505.283Z"/><path fill="#BCBCBC" d="M708.853 100.709L725.802 114.6L487.341 114.6L503.706 100.709L708.853 100.709Z"/><path fill="#E5E5E5" d="M488.499 32.4124L504.705 46.3033V100.131L488.499 114.6V32.4124Z"/><rect width="219.94" height="68.297" x="496.602" y="39.358" fill="#F5F5F5"/></g></svg>